<svg width="675" height="120" viewBox="0 0 675 120" fill="none" xmlns="http://www.w3.org/2000/svg">
<circle cx="277.5" cy="58.5" r="28.5" stroke="black" stroke-width="20"/>
<path d="M314 120C298.5 120 297.882 120 278 120C258.118 120 257.5 120 242 120C242 104 258.118 104 278 104C297.882 104 314 104 314 120Z" fill="#CF5C2B"/>
<path d="M20.3864 93H2.25L25.8068 23.1818H48.2727L71.8295 93H53.6932L37.2955 40.7727H36.75L20.3864 93ZM17.9659 65.5227H55.875V78.3409H17.9659V65.5227ZM139.44 48.4773H122.395C122.168 46.7273 121.702 45.1477 120.997 43.7386C120.293 42.3295 119.361 41.125 118.202 40.125C117.043 39.125 115.668 38.3636 114.077 37.8409C112.509 37.2955 110.77 37.0227 108.861 37.0227C105.474 37.0227 102.554 37.8523 100.099 39.5114C97.6676 41.1705 95.7926 43.5682 94.4744 46.7045C93.179 49.8409 92.5312 53.6364 92.5312 58.0909C92.5312 62.7273 93.1903 66.6136 94.5085 69.75C95.8494 72.8636 97.7244 75.2159 100.134 76.8068C102.565 78.375 105.44 79.1591 108.759 79.1591C110.622 79.1591 112.315 78.9205 113.838 78.4432C115.384 77.9659 116.736 77.2727 117.895 76.3636C119.077 75.4318 120.043 74.3068 120.793 72.9886C121.565 71.6477 122.099 70.1364 122.395 68.4545L139.44 68.5568C139.145 71.6477 138.247 74.6932 136.747 77.6932C135.27 80.6932 133.236 83.4318 130.645 85.9091C128.054 88.3636 124.895 90.3182 121.168 91.7727C117.463 93.2273 113.213 93.9545 108.418 93.9545C102.099 93.9545 96.4403 92.5682 91.4403 89.7955C86.4631 87 82.5313 82.9318 79.6449 77.5909C76.7585 72.25 75.3153 65.75 75.3153 58.0909C75.3153 50.4091 76.7812 43.8977 79.7131 38.5568C82.6449 33.2159 86.6108 29.1591 91.6108 26.3864C96.6108 23.6136 102.213 22.2273 108.418 22.2273C112.645 22.2273 116.554 22.8182 120.145 24C123.736 25.1591 126.895 26.8636 129.622 29.1136C132.349 31.3409 134.565 34.0795 136.27 37.3295C137.974 40.5795 139.031 44.2955 139.44 48.4773ZM146.812 36.8864V23.1818H205.824V36.8864H184.653V93H168.017V36.8864H146.812ZM230.94 23.1818V93H214.065V23.1818H230.94ZM383.455 23.1818V93H369.136L341.352 52.7045H340.909V93H324.034V23.1818H338.557L366.034 63.4091H366.614V23.1818H383.455Z" fill="black"/>
<path d="M396.273 93V23.1818H436.67V28.9091H402.648V55.1932H433.5V60.9205H402.648V93H396.273ZM458.898 23.1818V93H452.523V23.1818H458.898ZM477.46 93V23.1818H483.835V87.2727H517.108V93H477.46ZM531.46 23.1818H538.824L564.153 84H564.767L590.097 23.1818H597.46V93H591.46V36.6477H590.915L567.358 93H561.562L538.006 36.6477H537.46V93H531.46V23.1818ZM613.261 93V88.1932L652.023 28.9091H613.057V23.1818H659.625V27.9886L620.83 87.2727H659.966V93H613.261Z" fill="black"/>
</svg>
